<svg xmlns="http://www.w3.org/2000/svg" viewBox="0 0 220.38 33.4"><defs><style>.cls-1{fill:#fa4515;}</style></defs><g id="Layer_2" data-name="Layer 2"><g id="Layer_1-2" data-name="Layer 1"><path class="cls-1" d="M28.21,19a14.61,14.61,0,0,1-5.3,11.32V19a9.2,9.2,0,0,0-2.59-6.42,8.7,8.7,0,0,0-6.25-2.65A9,9,0,0,0,5.24,19V30.24A14.59,14.59,0,0,1,0,19V0H5.24V7.7A13.81,13.81,0,0,1,14.1,4.48,14.31,14.31,0,0,1,28.21,19Z"/><path class="cls-1" d="M19.37,19V32.42a13.82,13.82,0,0,1-3.53.94V13.82a5.27,5.27,0,0,1,2,1.29A5.48,5.48,0,0,1,19.37,19Z"/><path class="cls-1" d="M12.31,13.82V33.35a13.45,13.45,0,0,1-3.53-1V19A5.43,5.43,0,0,1,12.31,13.82Z"/><path d="M44.74,28.46H36.18V8h8.48a6.75,6.75,0,0,1,4.45,1.39,4.61,4.61,0,0,1,1.65,3.71A4.42,4.42,0,0,1,49.69,16,4.28,4.28,0,0,1,47,17.57v.11a5.19,5.19,0,0,1,3.4,1.57,4.72,4.72,0,0,1,1.31,3.4,5.24,5.24,0,0,1-1.87,4.26A7.82,7.82,0,0,1,44.74,28.46ZM39.83,10.87v5.76h3.34a4.82,4.82,0,0,0,2.95-.77,2.57,2.57,0,0,0,1-2.2,2.52,2.52,0,0,0-.88-2.06,3.87,3.87,0,0,0-2.53-.73Zm0,14.74h4.08A4.87,4.87,0,0,0,47,24.79,2.84,2.84,0,0,0,48,22.4,2.78,2.78,0,0,0,47,20a5.32,5.32,0,0,0-3.2-.81H39.83Z"/><path d="M63.66,24H67a5.1,5.1,0,0,1-2.16,3.46,7.45,7.45,0,0,1-4.48,1.32A6.87,6.87,0,0,1,55,26.68,8,8,0,0,1,53.09,21,8.26,8.26,0,0,1,55,15.29a6.55,6.55,0,0,1,5.16-2.15,6.53,6.53,0,0,1,5.06,2,7.84,7.84,0,0,1,1.87,5.47V21.8H56.6V22a4.15,4.15,0,0,0,1,2.92A3.56,3.56,0,0,0,60.38,26a3.88,3.88,0,0,0,2.11-.56A2.68,2.68,0,0,0,63.66,24Zm-3.47-8.1a3.3,3.3,0,0,0-2.46,1,4,4,0,0,0-1.1,2.6h7a3.88,3.88,0,0,0-1-2.61A3.23,3.23,0,0,0,60.19,15.87Z"/><path d="M70.05,9.94h3.52v3.51h2.84v2.72H73.57V24A1.87,1.87,0,0,0,74,25.33a1.9,1.9,0,0,0,1.38.44,6.48,6.48,0,0,0,1-.07v2.69a9.22,9.22,0,0,1-1.82.14,5.12,5.12,0,0,1-3.48-.94,4,4,0,0,1-1-3.13V16.17H67.9V13.45h2.15Z"/><path d="M79.49,9.94H83v3.51h2.83v2.72H83V24a1.87,1.87,0,0,0,.44,1.36,1.89,1.89,0,0,0,1.38.44,6.48,6.48,0,0,0,1-.07v2.69a9.26,9.26,0,0,1-1.83.14,5.11,5.11,0,0,1-3.47-.94,4,4,0,0,1-1-3.13V16.17H77.33V13.45h2.16Z"/><path d="M97.6,24h3.3a5.1,5.1,0,0,1-2.16,3.46,7.45,7.45,0,0,1-4.48,1.32A6.87,6.87,0,0,1,89,26.68,8,8,0,0,1,87,21,8.26,8.26,0,0,1,89,15.29a7.28,7.28,0,0,1,10.22-.11,7.84,7.84,0,0,1,1.87,5.47V21.8H90.55V22a4.15,4.15,0,0,0,1,2.92A3.56,3.56,0,0,0,94.33,26a3.88,3.88,0,0,0,2.11-.56A2.62,2.62,0,0,0,97.6,24Zm-3.46-8.1a3.29,3.29,0,0,0-2.46,1,4,4,0,0,0-1.1,2.6h7a3.88,3.88,0,0,0-1-2.61A3.23,3.23,0,0,0,94.14,15.87Z"/><path d="M103,28.46v-15h3.39v2.62h.07a3.94,3.94,0,0,1,1.32-2.13,3.55,3.55,0,0,1,2.27-.75,5.59,5.59,0,0,1,1.11.14v3.19a4.22,4.22,0,0,0-1.43-.2,3,3,0,0,0-2.35.91,3.47,3.47,0,0,0-.85,2.49v8.74Z"/><path d="M139.65,28.46h-3.28V14h-.1l-5.9,14.33h-2.5L122,14h-.1v14.5h-3.3V8h4.23l6.26,15.42h.12L135.44,8h4.21Z"/><path d="M146.69,28.7a5.21,5.21,0,0,1-3.61-1.26,4.18,4.18,0,0,1-1.41-3.27A3.82,3.82,0,0,1,143.15,21a7.45,7.45,0,0,1,4.23-1.33l4-.23V18.38a2.28,2.28,0,0,0-.74-1.83,3,3,0,0,0-2.06-.65,3.39,3.39,0,0,0-2,.55,2.26,2.26,0,0,0-.95,1.5h-3.27a4.57,4.57,0,0,1,1.83-3.48,7.21,7.21,0,0,1,4.54-1.33,6.87,6.87,0,0,1,4.47,1.36,4.41,4.41,0,0,1,1.68,3.62V28.46h-3.4v-2.4h-.07A4.64,4.64,0,0,1,149.43,28,5.53,5.53,0,0,1,146.69,28.7ZM147.75,26a3.75,3.75,0,0,0,2.55-.9,2.83,2.83,0,0,0,1-2.25V21.75l-3.47.21a3.47,3.47,0,0,0-2,.63,1.71,1.71,0,0,0-.7,1.43,1.75,1.75,0,0,0,.7,1.47A3,3,0,0,0,147.75,26Z"/><path d="M157.37,28.46v-15h3.38v2.62h.07a4,4,0,0,1,1.33-2.13,3.53,3.53,0,0,1,2.27-.75,5.59,5.59,0,0,1,1.11.14v3.19a4.22,4.22,0,0,0-1.43-.2,3,3,0,0,0-2.35.91,3.47,3.47,0,0,0-.85,2.49v8.74Z"/><path d="M172.1,13.19a5.3,5.3,0,0,1,2.84.77A5,5,0,0,1,176.82,16h.07V13.45h3.45v20h-3.52V25.92h-.09a4.56,4.56,0,0,1-1.84,2,5.86,5.86,0,0,1-7.36-1.35,8.83,8.83,0,0,1-1.67-5.66,8.77,8.77,0,0,1,1.68-5.66A5.58,5.58,0,0,1,172.1,13.19Zm1,12.62a3.24,3.24,0,0,0,2.69-1.32,5.68,5.68,0,0,0,1-3.54,5.63,5.63,0,0,0-1-3.53,3.24,3.24,0,0,0-2.69-1.32,3.14,3.14,0,0,0-2.66,1.3,5.8,5.8,0,0,0-1,3.55,5.83,5.83,0,0,0,1,3.56A3.14,3.14,0,0,0,173.11,25.81Z"/><path d="M196.24,13.45v15h-3.4V25.85h-.07a4.57,4.57,0,0,1-4.59,2.88,5.11,5.11,0,0,1-3.88-1.5,5.63,5.63,0,0,1-1.44-4.08v-9.7h3.52v9a3.49,3.49,0,0,0,.78,2.46,2.86,2.86,0,0,0,2.25.85,3.08,3.08,0,0,0,2.41-1,3.76,3.76,0,0,0,.89-2.63V13.45Z"/><path d="M208.76,24h3.3a5.1,5.1,0,0,1-2.16,3.46,7.45,7.45,0,0,1-4.48,1.32,6.87,6.87,0,0,1-5.29-2.07A8,8,0,0,1,198.2,21a8.26,8.26,0,0,1,1.92-5.72,7.28,7.28,0,0,1,10.22-.11,7.84,7.84,0,0,1,1.87,5.47V21.8h-10.5V22a4.15,4.15,0,0,0,1,2.92A3.56,3.56,0,0,0,205.49,26a3.88,3.88,0,0,0,2.11-.56A2.62,2.62,0,0,0,208.76,24Zm-3.46-8.1a3.29,3.29,0,0,0-2.46,1,4,4,0,0,0-1.1,2.6h7a3.88,3.88,0,0,0-1-2.61A3.23,3.23,0,0,0,205.3,15.87Z"/><path d="M214.75,17.46h-.7V14.13h-1.17v-.59h3v.59h-1.17Z"/><path d="M220.38,17.46h-.63V14.68h0l-1.13,2.74h-.48L217,14.68h0v2.78h-.63V13.54h.81l1.2,3h0l1.2-3h.81Z"/></g></g></svg>