<svg width="1155" height="763" viewBox="0 0 1155 763" fill="none" xmlns="http://www.w3.org/2000/svg">
<g clip-path="url(#clip0_38_2)">
<line x1="-0.00175438" y1="254" x2="1155" y2="251.974" stroke="black" stroke-width="2"/>
<line x1="0.998246" y1="509.026" x2="1156" y2="507" stroke="black" stroke-width="2"/>
<path d="M583 365.125C578.443 365.13 574.075 366.943 570.853 370.165C567.63 373.387 565.818 377.756 565.813 382.312C565.808 386.036 567.025 389.658 569.275 392.625C569.275 392.625 569.744 393.242 569.82 393.331L583 408.875L596.186 393.323C596.255 393.241 596.725 392.625 596.725 392.625L596.727 392.62C598.976 389.655 600.191 386.034 600.188 382.312C600.182 377.756 598.37 373.387 595.147 370.165C591.925 366.943 587.557 365.13 583 365.125ZM583 388.562C581.764 388.562 580.556 388.196 579.528 387.509C578.5 386.822 577.699 385.846 577.226 384.704C576.753 383.562 576.629 382.306 576.87 381.093C577.111 379.881 577.707 378.767 578.581 377.893C579.455 377.019 580.568 376.424 581.781 376.183C582.993 375.941 584.25 376.065 585.392 376.538C586.534 377.011 587.51 377.812 588.197 378.84C588.883 379.868 589.25 381.076 589.25 382.312C589.248 383.969 588.589 385.558 587.417 386.73C586.245 387.901 584.657 388.56 583 388.562Z" fill="#013CAC"/>
<path d="M436.324 52.9434C442.326 52.9434 446.1 56.6895 446.1 62.0488C446.1 65.5488 444.172 67.9961 441.725 69.1855L440.932 66.5605C442.818 65.3711 443.762 63.8535 443.762 62.0078C443.762 58.3984 440.809 56.0879 436.324 56.0879C431.771 56.0879 428.928 58.4668 428.928 62.0078C428.928 64.3184 430.309 66.123 432.072 66.957L431.307 69.7188C430.145 69.1719 429.174 68.3789 428.189 67.1758C427.191 65.9727 426.562 64.1133 426.562 62.0488C426.562 56.7852 430.213 52.9434 436.324 52.9434ZM427 74.75V71.8379H446.305V74.75H438.922V74.8047C440.084 75.5566 440.973 77.1699 440.973 78.9609C440.973 81.9004 439.441 83.9102 435.723 83.9102H427V81.0254H435.354C437.596 81.0254 438.717 80.1641 438.717 78.4277C438.717 76.3906 436.953 74.75 434.82 74.75H427ZM433.85 85.7832C438.156 85.7832 440.973 88.7363 440.973 92.7285C440.973 96.7754 438.102 99.5508 434 99.5508L432.893 99.4688V88.7637C430.609 88.7637 428.723 90.2949 428.723 92.9199C428.723 94.6562 429.557 96.0781 430.801 96.7891L430.049 99.2637C428.025 98.2793 426.562 96.1055 426.562 92.8926C426.562 88.6816 429.434 85.7832 433.85 85.7832ZM434.779 88.832V96.543C437.076 96.543 438.84 95.1211 438.84 92.7285C438.84 90.3633 437.008 88.8867 434.779 88.832ZM427 113.537V101.287H428.75L438.293 109.395V101.957H440.549V113.264H438.881L429.242 105.074V113.537H427ZM427 124.297L445.662 119.525V122.807L430.008 126.047V126.17L445.662 129.875V133.047L430.008 136.793V136.93L445.662 140.17V143.438L427 138.68V135.166L442.285 131.543V131.406L427 127.811V124.297ZM433.768 145.748C430.541 145.748 428.805 147.512 428.805 149.645C428.805 151.736 430.541 153.541 433.768 153.541C437.049 153.541 438.717 151.736 438.717 149.645C438.717 147.553 437.049 145.748 433.768 145.748ZM433.768 142.74C435.08 142.74 436.27 142.986 437.336 143.465C439.455 144.422 440.973 146.623 440.973 149.645C440.973 154.129 437.828 156.562 433.768 156.562C432.127 156.562 430.514 156.125 429.037 155.1C427.561 154.074 426.562 152.146 426.562 149.645C426.562 147.143 427.52 145.27 428.982 144.244C430.445 143.219 432.059 142.74 433.768 142.74ZM431.854 158.436H440.549V161.402H432.277C429.967 161.402 428.805 162.318 428.805 164.137C428.805 166.324 430.664 167.568 432.906 167.568H440.549V170.494H427V167.678H428.791V167.637C427.738 167.145 426.562 165.75 426.562 163.439C426.562 160.719 428.148 158.436 431.854 158.436Z" fill="black"/>
<path d="M73 43.8105H91.6895V51.959C91.6895 56.1289 89.3516 58.6309 86.207 58.6309C84.2656 58.6309 82.8574 57.7285 82.0098 56.5391C80.9434 57.6875 79.4668 58.0566 78.0039 58.1797C75.9395 58.3301 75.1465 58.3848 73 59.6699V56.2656C74.2441 55.4727 75.1602 55.377 77.8262 55.1035C79.7402 54.9805 80.6426 54.4062 80.6426 51.7129V46.8457H73V43.8105ZM82.7207 46.832V51.4121C82.7207 53.9824 83.8965 55.459 86.0293 55.459C88.2031 55.459 89.3105 54.0508 89.3105 51.3711V46.832H82.7207ZM77.8535 61.0234H86.5488V63.9902H78.2773C75.9668 63.9902 74.8047 64.9062 74.8047 66.7246C74.8047 68.9121 76.6641 70.1562 78.9062 70.1562H86.5488V73.082H73V70.2656H74.791V70.2246C73.7383 69.7324 72.5625 68.3379 72.5625 66.0273C72.5625 63.3066 74.1484 61.0234 77.8535 61.0234ZM79.8496 74.9414C84.1562 74.9414 86.9727 77.8945 86.9727 81.8867C86.9727 85.9336 84.1016 88.709 80 88.709L78.8926 88.627V77.9219C76.6094 77.9219 74.7227 79.4531 74.7227 82.0781C74.7227 83.8145 75.5566 85.2363 76.8008 85.9473L76.0488 88.4219C74.0254 87.4375 72.5625 85.2637 72.5625 82.0508C72.5625 77.8398 75.4336 74.9414 79.8496 74.9414ZM80.7793 77.9902V85.7012C83.0762 85.7012 84.8398 84.2793 84.8398 81.8867C84.8398 79.5215 83.0078 78.0449 80.7793 77.9902ZM77.2246 96.8984C75.8984 97.377 74.9277 98.4707 74.9277 99.9062C74.9277 101.861 76.1582 102.832 78.6191 102.832H91.6621V105.867H78.2773C74.5723 105.867 72.5625 103.775 72.5625 100.002C72.5625 96.9395 74.1895 95.0117 76.3086 94.2871L77.2246 96.8984ZM79.7676 110.816C76.541 110.816 74.8047 112.58 74.8047 114.713C74.8047 116.805 76.541 118.609 79.7676 118.609C83.0488 118.609 84.7168 116.805 84.7168 114.713C84.7168 112.621 83.0488 110.816 79.7676 110.816ZM79.7676 107.809C81.0801 107.809 82.2695 108.055 83.3359 108.533C85.4551 109.49 86.9727 111.691 86.9727 114.713C86.9727 119.197 83.8281 121.631 79.7676 121.631C78.127 121.631 76.5137 121.193 75.0371 120.168C73.5605 119.143 72.5625 117.215 72.5625 114.713C72.5625 112.211 73.5195 110.338 74.9824 109.312C76.4453 108.287 78.0586 107.809 79.7676 107.809ZM76.8965 124.953C75.4473 126.033 74.7227 127.428 74.7227 129.15C74.7227 130.955 75.4473 132.172 76.541 132.172C77.2383 132.172 77.8125 131.584 78.2773 130.408C78.4277 130.039 78.6875 129.178 79.0566 127.838C79.4258 126.635 79.7266 125.801 80.3555 124.857C80.9844 123.914 81.9141 123.381 83.0762 123.381C85.4277 123.381 86.9727 125.801 86.9727 129.191C86.9727 131.652 85.6465 133.963 83.8965 135.016L82.8164 133.047C84.1426 132.035 84.8125 130.75 84.8125 129.191C84.8125 127.346 84.0879 126.361 83.0352 126.361C82.4746 126.361 81.9551 126.799 81.6816 127.182C81.5312 127.359 81.3809 127.688 81.2031 128.139C80.8613 129.041 80.8203 129.232 80.5332 130.326C79.6309 133.566 78.291 135.18 76.5137 135.18C74.2852 135.18 72.5625 132.965 72.5625 129.205C72.5625 126.402 73.8066 124.037 75.7754 122.82L76.8965 124.953ZM79.8496 136.328C84.1563 136.328 86.9727 139.281 86.9727 143.273C86.9727 147.32 84.1016 150.096 80 150.096L78.8926 150.014V139.309C76.6094 139.309 74.7227 140.84 74.7227 143.465C74.7227 145.201 75.5566 146.623 76.8008 147.334L76.0488 149.809C74.0254 148.824 72.5625 146.65 72.5625 143.438C72.5625 139.227 75.4336 136.328 79.8496 136.328ZM80.7793 139.377V147.088C83.0762 147.088 84.8398 145.666 84.8398 143.273C84.8398 140.908 83.0078 139.432 80.7793 139.377ZM79.7949 154.785C76.7871 154.785 74.8047 156.221 74.8047 158.518C74.8047 160.719 76.7188 162.291 79.7949 162.291C82.7617 162.291 84.7168 160.883 84.7168 158.518C84.7168 156.234 82.707 154.785 79.7949 154.785ZM67.3672 151.914H86.5488V154.717H84.5801C85.9883 155.496 86.9727 157.014 86.9727 158.914C86.9727 162.578 84.1699 165.312 79.7949 165.312C77.375 165.312 75.3516 164.465 74.2441 163.221C73.1367 161.977 72.5625 160.5 72.5625 158.914C72.5625 156.877 73.5742 155.469 74.8184 154.826H67.3672V151.914ZM73 170.084V167.172H92.3047V170.084H84.9219V170.139C86.084 170.891 86.9727 172.504 86.9727 174.295C86.9727 177.234 85.4414 179.244 81.7227 179.244H73V176.359H81.3535C83.5957 176.359 84.7168 175.498 84.7168 173.762C84.7168 171.725 82.9531 170.084 80.8203 170.084H73ZM43 79.6445L43 76.5957H61.6621L61.6621 80.3965L47.7852 86.207V86.2891L61.6621 92.127V95.9688H43V92.9199H57.2461L44.1758 87.4648V85.0996L57.1777 79.6445H43ZM43 101.41V98.5391H62.3047V101.451H54.7441C55.9336 102.162 56.9727 103.639 56.9727 105.539C56.9727 109.258 54.2383 111.938 49.7949 111.938C47.293 111.938 45.2969 111.076 44.2168 109.818C43.123 108.561 42.5625 107.07 42.5625 105.58C42.5625 103.68 43.6426 102.066 44.9414 101.41H43ZM49.7949 101.41C46.7324 101.41 44.8047 102.969 44.8047 105.143C44.8047 107.344 46.6367 108.916 49.7949 108.916C52.8438 108.916 54.7168 107.439 54.7168 105.143C54.7168 102.941 52.7617 101.41 49.7949 101.41ZM46.6914 116.094C45.5977 116.094 44.791 117.119 44.791 118.801C44.791 121.098 46.2402 122.943 48.3867 122.943H49.8496C49.6719 122.109 49.4941 121.029 49.3027 119.676C48.9336 117.27 48.1543 116.094 46.6914 116.094ZM46.4863 113.072C49.0156 113.072 50.5742 115.205 51.1758 119.484C51.4082 121.248 51.6133 122.396 51.7637 122.943H52.5156C53.9785 122.943 54.8672 121.672 54.8672 119.717C54.8672 117.98 54.2383 116.518 52.9668 115.314L54.3613 113.482C56.002 115.014 56.9727 117.27 56.9727 119.662C56.9727 123.805 55.1543 125.869 51.5039 125.869H43V122.998H44.873C43.6152 122.41 42.5625 120.578 42.5625 118.391C42.5625 115.096 44.1758 113.072 46.4863 113.072ZM43 131.297V128.344H62.3047V131.297H43ZM43 136.738V133.785H62.3047V136.738H43ZM46.6914 141.523C45.5977 141.523 44.791 142.549 44.791 144.23C44.791 146.527 46.2402 148.373 48.3867 148.373H49.8496C49.6719 147.539 49.4941 146.459 49.3027 145.105C48.9336 142.699 48.1543 141.523 46.6914 141.523ZM46.4863 138.502C49.0156 138.502 50.5742 140.635 51.1758 144.914C51.4082 146.678 51.6133 147.826 51.7637 148.373H52.5156C53.9785 148.373 54.8672 147.102 54.8672 145.146C54.8672 143.41 54.2383 141.947 52.9668 140.744L54.3613 138.912C56.002 140.443 56.9727 142.699 56.9727 145.092C56.9727 149.234 55.1543 151.299 51.5039 151.299H43V148.428H44.873C43.6152 147.84 42.5625 146.008 42.5625 143.82C42.5625 140.525 44.1758 138.502 46.4863 138.502Z" fill="black"/>
<path d="M77 302.811H95.6895V310.959C95.6895 315.129 93.3516 317.631 90.207 317.631C88.2656 317.631 86.8574 316.729 86.0098 315.539C84.9434 316.688 83.4668 317.057 82.0039 317.18C79.9395 317.33 79.1465 317.385 77 318.67V315.266C78.2441 314.473 79.1602 314.377 81.8262 314.104C83.7402 313.98 84.6426 313.406 84.6426 310.713V305.846H77V302.811ZM86.7207 305.832V310.412C86.7207 312.982 87.8965 314.459 90.0293 314.459C92.2031 314.459 93.3105 313.051 93.3105 310.371V305.832H86.7207ZM81.8535 320.023H90.5488V322.99H82.2773C79.9668 322.99 78.8047 323.906 78.8047 325.725C78.8047 327.912 80.6641 329.156 82.9062 329.156H90.5488V332.082H77V329.266H78.791V329.225C77.7383 328.732 76.5625 327.338 76.5625 325.027C76.5625 322.307 78.1484 320.023 81.8535 320.023ZM83.8496 333.941C88.1562 333.941 90.9727 336.895 90.9727 340.887C90.9727 344.934 88.1016 347.709 84 347.709L82.8926 347.627V336.922C80.6094 336.922 78.7227 338.453 78.7227 341.078C78.7227 342.814 79.5566 344.236 80.8008 344.947L80.0488 347.422C78.0254 346.438 76.5625 344.264 76.5625 341.051C76.5625 336.84 79.4336 333.941 83.8496 333.941ZM84.7793 336.99V344.701C87.0762 344.701 88.8398 343.279 88.8398 340.887C88.8398 338.521 87.0078 337.045 84.7793 336.99ZM81.2246 355.898C79.8984 356.377 78.9277 357.471 78.9277 358.906C78.9277 360.861 80.1582 361.832 82.6191 361.832H95.6621V364.867H82.2773C78.5723 364.867 76.5625 362.775 76.5625 359.002C76.5625 355.939 78.1895 354.012 80.3086 353.287L81.2246 355.898ZM83.7676 369.816C80.541 369.816 78.8047 371.58 78.8047 373.713C78.8047 375.805 80.541 377.609 83.7676 377.609C87.0488 377.609 88.7168 375.805 88.7168 373.713C88.7168 371.621 87.0488 369.816 83.7676 369.816ZM83.7676 366.809C85.0801 366.809 86.2695 367.055 87.3359 367.533C89.4551 368.49 90.9727 370.691 90.9727 373.713C90.9727 378.197 87.8281 380.631 83.7676 380.631C82.127 380.631 80.5137 380.193 79.0371 379.168C77.5605 378.143 76.5625 376.215 76.5625 373.713C76.5625 371.211 77.5195 369.338 78.9824 368.312C80.4453 367.287 82.0586 366.809 83.7676 366.809ZM80.8965 383.953C79.4473 385.033 78.7227 386.428 78.7227 388.15C78.7227 389.955 79.4473 391.172 80.541 391.172C81.2383 391.172 81.8125 390.584 82.2773 389.408C82.4277 389.039 82.6875 388.178 83.0566 386.838C83.4258 385.635 83.7266 384.801 84.3555 383.857C84.9844 382.914 85.9141 382.381 87.0762 382.381C89.4277 382.381 90.9727 384.801 90.9727 388.191C90.9727 390.652 89.6465 392.963 87.8965 394.016L86.8164 392.047C88.1426 391.035 88.8125 389.75 88.8125 388.191C88.8125 386.346 88.0879 385.361 87.0352 385.361C86.4746 385.361 85.9551 385.799 85.6816 386.182C85.5312 386.359 85.3809 386.688 85.2031 387.139C84.8613 388.041 84.8203 388.232 84.5332 389.326C83.6309 392.566 82.291 394.18 80.5137 394.18C78.2852 394.18 76.5625 391.965 76.5625 388.205C76.5625 385.402 77.8066 383.037 79.7754 381.82L80.8965 383.953ZM83.8496 395.328C88.1563 395.328 90.9727 398.281 90.9727 402.273C90.9727 406.32 88.1016 409.096 84 409.096L82.8926 409.014V398.309C80.6094 398.309 78.7227 399.84 78.7227 402.465C78.7227 404.201 79.5566 405.623 80.8008 406.334L80.0488 408.809C78.0254 407.824 76.5625 405.65 76.5625 402.438C76.5625 398.227 79.4336 395.328 83.8496 395.328ZM84.7793 398.377V406.088C87.0762 406.088 88.8398 404.666 88.8398 402.273C88.8398 399.908 87.0078 398.432 84.7793 398.377ZM83.7949 413.785C80.7871 413.785 78.8047 415.221 78.8047 417.518C78.8047 419.719 80.7188 421.291 83.7949 421.291C86.7617 421.291 88.7168 419.883 88.7168 417.518C88.7168 415.234 86.707 413.785 83.7949 413.785ZM71.3672 410.914H90.5488V413.717H88.5801C89.9883 414.496 90.9727 416.014 90.9727 417.914C90.9727 421.578 88.1699 424.312 83.7949 424.312C81.375 424.312 79.3516 423.465 78.2441 422.221C77.1367 420.977 76.5625 419.5 76.5625 417.914C76.5625 415.877 77.5742 414.469 78.8184 413.826H71.3672V410.914ZM77 429.084V426.172H96.3047V429.084H88.9219V429.139C90.084 429.891 90.9727 431.504 90.9727 433.295C90.9727 436.234 89.4414 438.244 85.7227 438.244H77V435.359H85.3535C87.5957 435.359 88.7168 434.498 88.7168 432.762C88.7168 430.725 86.9531 429.084 84.8203 429.084H77ZM47 338.645L47 335.596H65.6621V339.396L51.7852 345.207V345.289L65.6621 351.127V354.969H47V351.92H61.2461L48.1758 346.465V344.1L61.1777 338.645H47ZM47 360.41V357.539H66.3047V360.451H58.7441C59.9336 361.162 60.9727 362.639 60.9727 364.539C60.9727 368.258 58.2383 370.938 53.7949 370.938C51.293 370.938 49.2969 370.076 48.2168 368.818C47.123 367.561 46.5625 366.07 46.5625 364.58C46.5625 362.68 47.6426 361.066 48.9414 360.41H47ZM53.7949 360.41C50.7324 360.41 48.8047 361.969 48.8047 364.143C48.8047 366.344 50.6367 367.916 53.7949 367.916C56.8438 367.916 58.7168 366.439 58.7168 364.143C58.7168 361.941 56.7617 360.41 53.7949 360.41ZM50.6914 375.094C49.5977 375.094 48.791 376.119 48.791 377.801C48.791 380.098 50.2402 381.943 52.3867 381.943H53.8496C53.6719 381.109 53.4941 380.029 53.3027 378.676C52.9336 376.27 52.1543 375.094 50.6914 375.094ZM50.4863 372.072C53.0156 372.072 54.5742 374.205 55.1758 378.484C55.4082 380.248 55.6133 381.396 55.7637 381.943H56.5156C57.9785 381.943 58.8672 380.672 58.8672 378.717C58.8672 376.98 58.2383 375.518 56.9668 374.314L58.3613 372.482C60.002 374.014 60.9727 376.27 60.9727 378.662C60.9727 382.805 59.1543 384.869 55.5039 384.869H47V381.998H48.873C47.6152 381.41 46.5625 379.578 46.5625 377.391C46.5625 374.096 48.1758 372.072 50.4863 372.072ZM47 390.297V387.344H66.3047V390.297H47ZM47 395.738V392.785H66.3047V395.738H47ZM50.6914 400.523C49.5977 400.523 48.791 401.549 48.791 403.23C48.791 405.527 50.2402 407.373 52.3867 407.373H53.8496C53.6719 406.539 53.4941 405.459 53.3027 404.105C52.9336 401.699 52.1543 400.523 50.6914 400.523ZM50.4863 397.502C53.0156 397.502 54.5742 399.635 55.1758 403.914C55.4082 405.678 55.6133 406.826 55.7637 407.373H56.5156C57.9785 407.373 58.8672 406.102 58.8672 404.146C58.8672 402.41 58.2383 400.947 56.9668 399.744L58.3613 397.912C60.002 399.443 60.9727 401.699 60.9727 404.092C60.9727 408.234 59.1543 410.299 55.5039 410.299H47V407.428H48.873C47.6152 406.84 46.5625 405.008 46.5625 402.82C46.5625 399.525 48.1758 397.502 50.4863 397.502Z" fill="black"/>
<path d="M39.9434 550.676C39.9434 544.674 43.6895 540.9 49.0488 540.9C52.5488 540.9 54.9961 542.828 56.1855 545.275L53.5605 546.068C52.3711 544.182 50.8535 543.238 49.0078 543.238C45.3984 543.238 43.0879 546.191 43.0879 550.676C43.0879 555.229 45.4668 558.072 49.0078 558.072C51.3184 558.072 53.123 556.691 53.957 554.928L56.7188 555.693C56.1719 556.855 55.3789 557.826 54.1758 558.811C52.9727 559.809 51.1133 560.438 49.0488 560.438C43.7852 560.438 39.9434 556.787 39.9434 550.676ZM61.791 560H58.8379V540.695H61.791V560ZM64.2793 555.146V546.451H67.2461V554.723C67.2461 557.033 68.1621 558.195 69.9805 558.195C72.168 558.195 73.4121 556.336 73.4121 554.094V546.451H76.3379V560H73.5215V558.209H73.4805C72.9883 559.262 71.5938 560.438 69.2832 560.438C66.5625 560.438 64.2793 558.852 64.2793 555.146ZM81.6973 560H78.8262V540.695H81.7383V548.256C82.4492 547.066 83.9258 546.027 85.8262 546.027C89.5449 546.027 92.2246 548.762 92.2246 553.205C92.2246 555.707 91.3633 557.703 90.1055 558.783C88.8477 559.877 87.3574 560.438 85.8672 560.438C83.9668 560.438 82.3535 559.357 81.6973 558.059V560ZM81.6973 553.205C81.6973 556.268 83.2559 558.195 85.4297 558.195C87.6309 558.195 89.2031 556.363 89.2031 553.205C89.2031 550.156 87.7266 548.283 85.4297 548.283C83.2285 548.283 81.6973 550.238 81.6973 553.205ZM102.014 560H98.9648V541.338H107.004C111.229 541.338 113.785 543.566 113.785 546.971C113.785 550.43 111.105 552.59 107.059 552.59H102.014V560ZM102.014 550.279H106.594C109.164 550.279 110.627 549.104 110.627 546.971C110.627 544.797 109.205 543.689 106.566 543.689H102.014V550.279ZM117.49 556.309C117.49 557.402 118.516 558.209 120.197 558.209C122.494 558.209 124.34 556.76 124.34 554.613V553.15C123.506 553.328 122.426 553.506 121.072 553.697C118.666 554.066 117.49 554.846 117.49 556.309ZM114.469 556.514C114.469 553.984 116.602 552.426 120.881 551.824C122.645 551.592 123.793 551.387 124.34 551.236V550.484C124.34 549.021 123.068 548.133 121.113 548.133C119.377 548.133 117.914 548.762 116.711 550.033L114.879 548.639C116.41 546.998 118.666 546.027 121.059 546.027C125.201 546.027 127.266 547.846 127.266 551.496V560H124.395V558.127C123.807 559.385 121.975 560.438 119.787 560.438C116.492 560.438 114.469 558.824 114.469 556.514ZM132.707 560H129.74V546.451H132.611V548.338H132.639C133.09 547.244 134.73 546.027 137.027 546.027C139.939 546.027 141.895 547.518 141.895 551.277V560H138.928V551.646C138.928 549.404 138.066 548.283 136.344 548.283C134.32 548.283 132.707 549.965 132.707 552.098V560ZM145.736 548.707H143.303V546.451H145.736V542.336H148.662V546.451H152.285V548.707H148.662V555.775C148.662 557.184 149.305 557.744 150.576 557.744H152.285V560H150.193C147.227 560 145.736 558.646 145.736 555.953V548.707ZM157.098 560H154.186V540.695H157.098V548.078H157.152C157.904 546.916 159.518 546.027 161.309 546.027C164.248 546.027 166.258 547.559 166.258 551.277V560H163.373V551.646C163.373 549.404 162.512 548.283 160.775 548.283C158.738 548.283 157.098 550.047 157.098 552.18V560ZM168.131 553.15C168.131 548.844 171.084 546.027 175.076 546.027C179.123 546.027 181.898 548.898 181.898 553L181.816 554.107H171.111C171.111 556.391 172.643 558.277 175.268 558.277C177.004 558.277 178.426 557.443 179.137 556.199L181.611 556.951C180.627 558.975 178.453 560.438 175.24 560.438C171.029 560.438 168.131 557.566 168.131 553.15ZM171.18 552.221H178.891C178.891 549.924 177.469 548.16 175.076 548.16C172.711 548.16 171.234 549.992 171.18 552.221ZM186.684 560H183.717V546.451H186.52V548.078C187.162 547.039 188.502 546.027 190.361 546.027C191.168 546.027 191.838 546.123 192.371 546.314V548.748C191.783 548.543 191.113 548.447 190.361 548.447C188.01 548.447 186.684 550.197 186.684 552.877V560ZM192.303 553.15C192.303 548.844 195.256 546.027 199.248 546.027C203.295 546.027 206.07 548.898 206.07 553L205.988 554.107H195.283C195.283 556.391 196.814 558.277 199.439 558.277C201.176 558.277 202.598 557.443 203.309 556.199L205.783 556.951C204.799 558.975 202.625 560.438 199.412 560.438C195.201 560.438 192.303 557.566 192.303 553.15ZM195.352 552.221H203.062C203.062 549.924 201.641 548.16 199.248 548.16C196.883 548.16 195.406 549.992 195.352 552.221ZM209.338 556.104C210.418 557.553 211.812 558.277 213.535 558.277C215.34 558.277 216.557 557.553 216.557 556.459C216.557 555.762 215.969 555.188 214.793 554.723C214.424 554.572 213.562 554.312 212.223 553.943C211.02 553.574 210.186 553.273 209.242 552.645C208.299 552.016 207.766 551.086 207.766 549.924C207.766 547.572 210.186 546.027 213.576 546.027C216.037 546.027 218.348 547.354 219.4 549.104L217.432 550.184C216.42 548.857 215.135 548.188 213.576 548.188C211.73 548.188 210.746 548.912 210.746 549.965C210.746 550.525 211.184 551.045 211.566 551.318C211.744 551.469 212.072 551.619 212.523 551.797C213.426 552.139 213.617 552.18 214.711 552.467C217.951 553.369 219.564 554.709 219.564 556.486C219.564 558.715 217.35 560.438 213.59 560.438C210.787 560.438 208.422 559.193 207.205 557.225L209.338 556.104Z" fill="black"/>
<path d="M428.312 560V541.311H436.461C440.631 541.311 443.133 543.648 443.133 546.793C443.133 548.734 442.23 550.143 441.041 550.99C442.189 552.057 442.559 553.533 442.682 554.996C442.832 557.061 442.887 557.854 444.172 560H440.768C439.975 558.756 439.879 557.84 439.605 555.174C439.482 553.26 438.908 552.357 436.215 552.357H431.348V560H428.312ZM431.334 550.279H435.914C438.484 550.279 439.961 549.104 439.961 546.971C439.961 544.797 438.553 543.689 435.873 543.689H431.334V550.279ZM445.525 555.146V546.451H448.492V554.723C448.492 557.033 449.408 558.195 451.227 558.195C453.414 558.195 454.658 556.336 454.658 554.094V546.451H457.584V560H454.768V558.209H454.727C454.234 559.262 452.84 560.438 450.529 560.438C447.809 560.438 445.525 558.852 445.525 555.146ZM459.443 553.15C459.443 548.844 462.396 546.027 466.389 546.027C470.436 546.027 473.211 548.898 473.211 553L473.129 554.107H462.424C462.424 556.391 463.955 558.277 466.58 558.277C468.316 558.277 469.738 557.443 470.449 556.199L472.924 556.951C471.939 558.975 469.766 560.438 466.553 560.438C462.342 560.438 459.443 557.566 459.443 553.15ZM462.492 552.221H470.203C470.203 549.924 468.781 548.16 466.389 548.16C464.023 548.16 462.547 549.992 462.492 552.221ZM484.025 560L484.039 544.127L479.404 546.629V544.223L484.723 541.338H486.418V560H484.025ZM489.59 560.834V557.225H493.91V560.834H489.59ZM505.914 543.662H496.371V541.338H509.469V543.211C506.064 548.119 503.562 553.779 501.963 560.191H498.818C500.035 554.682 502.4 549.172 505.914 543.662ZM514.76 546.096C514.76 547.846 516.113 549.049 517.863 549.049C519.654 549.049 520.939 547.805 520.939 546.096C520.939 544.441 519.682 543.156 517.863 543.156C516.004 543.156 514.76 544.441 514.76 546.096ZM510.959 554.9C510.959 552.371 512.695 550.758 514.705 550.102C512.668 549.213 511.643 547.846 511.643 545.973C511.643 543.033 514.309 540.9 517.863 540.9C521.432 540.9 524.098 543.033 524.098 545.973C524.098 547.996 522.785 549.35 520.98 550.102C523.1 550.758 524.768 552.426 524.768 554.928C524.768 558.209 521.924 560.438 517.863 560.438C513.98 560.438 510.959 558.332 510.959 554.9ZM514.131 554.764C514.131 556.719 515.676 558.182 517.863 558.182C520.01 558.182 521.609 556.719 521.609 554.764C521.609 552.85 520.01 551.277 517.863 551.277C515.73 551.277 514.131 552.809 514.131 554.764ZM526.6 556.008V553.793L535.883 541.146H538.549V553.752H541.229V556.008H538.549V560.191H535.486V556.008H526.6ZM529.525 553.752H535.486V547.9C535.486 546.984 535.527 546.096 535.596 545.262H535.486C535.281 545.576 534.98 546.027 534.584 546.602C534.174 547.176 533.941 547.504 533.9 547.586L529.525 553.752Z" fill="black"/>
<path d="M1112.37 354.135L1107.08 352.111V358.893L1112.37 356.91C1112.66 356.801 1113.88 356.363 1116.05 355.598V355.42L1112.37 354.135ZM1100 346.205L1118.66 353.793V357.252L1100 364.84V361.545L1104.87 359.686V351.332L1100 349.5V346.205ZM1109.32 364.963C1115.33 364.963 1119.1 368.709 1119.1 374.068C1119.1 377.568 1117.17 380.016 1114.72 381.205L1113.93 378.58C1115.82 377.391 1116.76 375.873 1116.76 374.027C1116.76 370.418 1113.81 368.107 1109.32 368.107C1104.77 368.107 1101.93 370.486 1101.93 374.027C1101.93 376.338 1103.31 378.143 1105.07 378.977L1104.31 381.738C1103.14 381.191 1102.17 380.398 1101.19 379.195C1100.19 377.992 1099.56 376.133 1099.56 374.068C1099.56 368.805 1103.21 364.963 1109.32 364.963ZM1100 397.598V383.926H1118.66V397.365H1116.31V386.975H1110.81V396.34H1108.5V386.975H1102.35V397.598H1100ZM1100 400.086H1118.69V408.234C1118.69 412.404 1116.35 414.906 1113.21 414.906C1111.27 414.906 1109.86 414.004 1109.01 412.814C1107.94 413.963 1106.47 414.332 1105 414.455C1102.94 414.605 1102.15 414.66 1100 415.945V412.541C1101.24 411.748 1102.16 411.652 1104.83 411.379C1106.74 411.256 1107.64 410.682 1107.64 407.988V403.121H1100V400.086ZM1109.72 403.107V407.688C1109.72 410.258 1110.9 411.734 1113.03 411.734C1115.2 411.734 1116.31 410.326 1116.31 407.646V403.107H1109.72Z" fill="black"/>
<path d="M1114.37 42.6035L1109.08 40.5801V47.3613L1114.37 45.3789C1114.66 45.2695 1115.88 44.832 1118.05 44.0664V43.8887L1114.37 42.6035ZM1102 34.6738L1120.66 42.2617V45.7207L1102 53.3086V50.0137L1106.87 48.1543V39.8008L1102 37.9688V34.6738ZM1102 57.7383V54.7715H1115.55V57.6426H1113.81C1114.85 58.1895 1115.97 59.6387 1115.97 61.6211C1115.97 63.3438 1115.1 64.5879 1113.36 65.3398C1113.79 65.5449 1114.26 65.9414 1114.89 66.666C1115.52 67.377 1115.97 68.5938 1115.97 70.002C1115.97 73.0508 1114.22 74.582 1110.72 74.582H1102V71.5879H1110.61C1112.68 71.5879 1113.72 71.082 1113.72 69.332C1113.72 67.4727 1112.14 66.1191 1110.03 66.1191H1102V63.1934H1110.67C1112.71 63.1934 1113.72 62.4414 1113.72 60.9375C1113.72 58.9141 1112.27 57.7383 1110.09 57.7383H1102ZM1102 79.9551V77.084H1121.3V79.9961H1113.74C1114.93 80.707 1115.97 82.1836 1115.97 84.084C1115.97 87.8027 1113.24 90.4824 1108.79 90.4824C1106.29 90.4824 1104.3 89.6211 1103.22 88.3633C1102.12 87.1055 1101.56 85.6152 1101.56 84.125C1101.56 82.2246 1102.64 80.6113 1103.94 79.9551H1102ZM1108.79 79.9551C1105.73 79.9551 1103.8 81.5137 1103.8 83.6875C1103.8 85.8887 1105.64 87.4609 1108.79 87.4609C1111.84 87.4609 1113.72 85.9844 1113.72 83.6875C1113.72 81.4863 1111.76 79.9551 1108.79 79.9551ZM1105.69 94.6387C1104.6 94.6387 1103.79 95.6641 1103.79 97.3457C1103.79 99.6426 1105.24 101.488 1107.39 101.488H1108.85C1108.67 100.654 1108.49 99.5742 1108.3 98.2207C1107.93 95.8145 1107.15 94.6387 1105.69 94.6387ZM1105.49 91.6172C1108.02 91.6172 1109.57 93.75 1110.18 98.0293C1110.41 99.793 1110.61 100.941 1110.76 101.488H1111.52C1112.98 101.488 1113.87 100.217 1113.87 98.2617C1113.87 96.5254 1113.24 95.0625 1111.97 93.8594L1113.36 92.0273C1115 93.5586 1115.97 95.8145 1115.97 98.207C1115.97 102.35 1114.15 104.414 1110.5 104.414H1102V101.543H1103.87C1102.62 100.955 1101.56 99.123 1101.56 96.9355C1101.56 93.6406 1103.18 91.6172 1105.49 91.6172ZM1105.9 108.338C1104.45 109.418 1103.72 110.812 1103.72 112.535C1103.72 114.34 1104.45 115.557 1105.54 115.557C1106.24 115.557 1106.81 114.969 1107.28 113.793C1107.43 113.424 1107.69 112.562 1108.06 111.223C1108.43 110.02 1108.73 109.186 1109.36 108.242C1109.98 107.299 1110.91 106.766 1112.08 106.766C1114.43 106.766 1115.97 109.186 1115.97 112.576C1115.97 115.037 1114.65 117.348 1112.9 118.4L1111.82 116.432C1113.14 115.42 1113.81 114.135 1113.81 112.576C1113.81 110.73 1113.09 109.746 1112.04 109.746C1111.47 109.746 1110.96 110.184 1110.68 110.566C1110.53 110.744 1110.38 111.072 1110.2 111.523C1109.86 112.426 1109.82 112.617 1109.53 113.711C1108.63 116.951 1107.29 118.564 1105.51 118.564C1103.29 118.564 1101.56 116.35 1101.56 112.59C1101.56 109.787 1102.81 107.422 1104.78 106.205L1105.9 108.338ZM1105.9 121.791C1104.45 122.871 1103.72 124.266 1103.72 125.988C1103.72 127.793 1104.45 129.01 1105.54 129.01C1106.24 129.01 1106.81 128.422 1107.28 127.246C1107.43 126.877 1107.69 126.016 1108.06 124.676C1108.43 123.473 1108.73 122.639 1109.36 121.695C1109.98 120.752 1110.91 120.219 1112.08 120.219C1114.43 120.219 1115.97 122.639 1115.97 126.029C1115.97 128.49 1114.65 130.801 1112.9 131.854L1111.82 129.885C1113.14 128.873 1113.81 127.588 1113.81 126.029C1113.81 124.184 1113.09 123.199 1112.04 123.199C1111.47 123.199 1110.96 123.637 1110.68 124.02C1110.53 124.197 1110.38 124.525 1110.2 124.977C1109.86 125.879 1109.82 126.07 1109.53 127.164C1108.63 130.404 1107.29 132.018 1105.51 132.018C1103.29 132.018 1101.56 129.803 1101.56 126.043C1101.56 123.24 1102.81 120.875 1104.78 119.658L1105.9 121.791ZM1105.69 136.092C1104.6 136.092 1103.79 137.117 1103.79 138.799C1103.79 141.096 1105.24 142.941 1107.39 142.941H1108.85C1108.67 142.107 1108.49 141.027 1108.3 139.674C1107.93 137.268 1107.15 136.092 1105.69 136.092ZM1105.49 133.07C1108.02 133.07 1109.57 135.203 1110.18 139.482C1110.41 141.246 1110.61 142.395 1110.76 142.941H1111.52C1112.98 142.941 1113.87 141.67 1113.87 139.715C1113.87 137.979 1113.24 136.516 1111.97 135.312L1113.36 133.48C1115 135.012 1115.97 137.268 1115.97 139.66C1115.97 143.803 1114.15 145.867 1110.5 145.867H1102V142.996H1103.87C1102.62 142.408 1101.56 140.576 1101.56 138.389C1101.56 135.094 1103.18 133.07 1105.49 133.07ZM1108.79 147.713C1113.24 147.713 1115.97 150.393 1115.97 154.111C1115.97 155.984 1114.92 157.475 1113.77 158.186H1121.3V161.125H1102V158.268H1103.97C1102.64 157.557 1101.56 155.984 1101.56 154.111C1101.56 152.539 1102.12 151.09 1103.22 149.832C1104.3 148.561 1106.29 147.713 1108.79 147.713ZM1108.79 150.721C1105.72 150.721 1103.8 152.266 1103.8 154.508C1103.8 156.654 1105.73 158.227 1108.79 158.227C1111.76 158.227 1113.72 156.695 1113.72 154.508C1113.72 152.156 1111.76 150.721 1108.79 150.721ZM1108.85 162.971C1113.16 162.971 1115.97 165.924 1115.97 169.916C1115.97 173.963 1113.1 176.738 1109 176.738L1107.89 176.656V165.951C1105.61 165.951 1103.72 167.482 1103.72 170.107C1103.72 171.844 1104.56 173.266 1105.8 173.977L1105.05 176.451C1103.03 175.467 1101.56 173.293 1101.56 170.08C1101.56 165.869 1104.43 162.971 1108.85 162.971ZM1109.78 166.02V173.73C1112.08 173.73 1113.84 172.309 1113.84 169.916C1113.84 167.551 1112.01 166.074 1109.78 166.02ZM1102 189.385V183.438H1120.66V189.439C1120.66 195.619 1117.35 199.201 1111.32 199.201C1108.66 199.201 1106.48 198.463 1104.75 196.945C1103.01 195.428 1102 192.789 1102 189.385ZM1104.34 186.486V189.043C1104.34 193.678 1106.66 196.002 1111.32 196.002C1116 196.002 1118.34 193.705 1118.34 189.098V186.486H1104.34ZM1106.85 201.416H1115.55V204.383H1107.28C1104.97 204.383 1103.8 205.299 1103.8 207.117C1103.8 209.305 1105.66 210.549 1107.91 210.549H1115.55V213.475H1102V210.658H1103.79V210.617C1102.74 210.125 1101.56 208.73 1101.56 206.42C1101.56 203.699 1103.15 201.416 1106.85 201.416ZM1086.31 97.3594V91.2207H1088.66V106.506H1086.31V100.408H1070V97.3594H1086.31ZM1076.77 105.467C1081.13 105.467 1083.97 108.229 1083.97 112.344C1083.97 115.283 1082.18 117.389 1080.12 117.977L1079.5 115.475C1080.75 114.996 1081.72 113.889 1081.72 112.371C1081.72 109.965 1079.62 108.516 1076.77 108.516C1073.69 108.516 1071.8 110.129 1071.8 112.371C1071.8 113.998 1072.95 115.352 1074.22 115.857L1073.57 118.346C1071.44 117.635 1069.56 115.283 1069.56 112.344C1069.56 108.256 1072.39 105.467 1076.77 105.467ZM1070 123.09V120.178H1089.3V123.09H1081.92V123.145C1083.08 123.896 1083.97 125.51 1083.97 127.301C1083.97 130.24 1082.44 132.25 1078.72 132.25H1070V129.365H1078.35C1080.6 129.365 1081.72 128.504 1081.72 126.768C1081.72 124.73 1079.95 123.09 1077.82 123.09H1070ZM1073.69 137.049C1072.6 137.049 1071.79 138.074 1071.79 139.756C1071.79 142.053 1073.24 143.898 1075.39 143.898H1076.85C1076.67 143.064 1076.49 141.984 1076.3 140.631C1075.93 138.225 1075.15 137.049 1073.69 137.049ZM1073.49 134.027C1076.02 134.027 1077.57 136.16 1078.18 140.439C1078.41 142.203 1078.61 143.352 1078.76 143.898H1079.52C1080.98 143.898 1081.87 142.627 1081.87 140.672C1081.87 138.936 1081.24 137.473 1079.97 136.27L1081.36 134.438C1083 135.969 1083.97 138.225 1083.97 140.617C1083.97 144.76 1082.15 146.824 1078.5 146.824H1070V143.953H1071.87C1070.62 143.365 1069.56 141.533 1069.56 139.346C1069.56 136.051 1071.18 134.027 1073.49 134.027ZM1076.79 148.67C1081.24 148.67 1083.97 151.35 1083.97 155.068C1083.97 156.941 1082.92 158.432 1081.77 159.143H1089.3V162.082H1070V159.225H1071.97C1070.64 158.514 1069.56 156.941 1069.56 155.068C1069.56 153.496 1070.12 152.047 1071.22 150.789C1072.3 149.518 1074.29 148.67 1076.79 148.67ZM1076.79 151.678C1073.72 151.678 1071.8 153.223 1071.8 155.465C1071.8 157.611 1073.73 159.184 1076.79 159.184C1079.76 159.184 1081.72 157.652 1081.72 155.465C1081.72 153.113 1079.76 151.678 1076.79 151.678Z" fill="black"/>
<line x1="386" y1="4.37114e-08" x2="386" y2="763" stroke="black" stroke-width="2"/>
<line x1="771" y1="4.37114e-08" x2="771" y2="763" stroke="black" stroke-width="2"/>
</g>
<rect x="1" y="1" width="1153" height="761" rx="29" stroke="black" stroke-width="2"/>
<defs>
<clipPath id="clip0_38_2">
<rect width="1155" height="763" rx="30" fill="white"/>
</clipPath>
</defs>
</svg>
