<svg width="1155" height="763" viewBox="0 0 1155 763" fill="none" xmlns="http://www.w3.org/2000/svg">
<path d="M578.5 371.667C573.067 371.667 568.667 376.067 568.667 381.5C568.667 386.933 573.067 391.333 578.5 391.333C583.933 391.333 588.333 386.933 588.333 381.5C588.333 376.067 583.933 371.667 578.5 371.667ZM600.478 379.042C599.921 374.057 597.685 369.409 594.138 365.862C590.591 362.315 585.944 360.079 580.958 359.523V354.458H576.042V359.523C571.057 360.079 566.409 362.315 562.862 365.862C559.315 369.409 557.08 374.057 556.523 379.042H551.458V383.958H556.523C557.08 388.944 559.315 393.591 562.862 397.138C566.409 400.685 571.057 402.921 576.042 403.478V408.542H580.958V403.478C585.944 402.921 590.591 400.685 594.138 397.138C597.685 393.591 599.921 388.944 600.478 383.958H605.542V379.042H600.478ZM578.5 398.708C568.986 398.708 561.292 391.014 561.292 381.5C561.292 371.986 568.986 364.292 578.5 364.292C588.014 364.292 595.708 371.986 595.708 381.5C595.708 391.014 588.014 398.708 578.5 398.708Z" fill="#0045AC"/>
<path d="M363.98 61.7188V56.457H365.996V69.5586H363.98V64.332H350V61.7188L363.98 61.7188ZM355.801 68.668C359.539 68.668 361.977 71.0352 361.977 74.5625C361.977 77.082 360.441 78.8867 358.672 79.3906L358.145 77.2461C359.211 76.8359 360.043 75.8867 360.043 74.5859C360.043 72.5234 358.25 71.2812 355.801 71.2812C353.164 71.2812 351.547 72.6641 351.547 74.5859C351.547 75.9805 352.531 77.1406 353.621 77.5742L353.059 79.707C351.23 79.0977 349.625 77.082 349.625 74.5625C349.625 71.0586 352.051 68.668 355.801 68.668ZM350 83.7734V81.2773H366.547V83.7734H360.219V83.8203C361.215 84.4648 361.977 85.8477 361.977 87.3828C361.977 89.9023 360.664 91.625 357.477 91.625H350V89.1523H357.16C359.082 89.1523 360.043 88.4141 360.043 86.9258C360.043 85.1797 358.531 83.7734 356.703 83.7734H350ZM355.801 95.8086C353.035 95.8086 351.547 97.3203 351.547 99.1484C351.547 100.941 353.035 102.488 355.801 102.488C358.613 102.488 360.043 100.941 360.043 99.1484C360.043 97.3555 358.613 95.8086 355.801 95.8086ZM355.801 93.2305C356.926 93.2305 357.945 93.4414 358.859 93.8516C360.676 94.6719 361.977 96.5586 361.977 99.1484C361.977 102.992 359.281 105.078 355.801 105.078C354.395 105.078 353.012 104.703 351.746 103.824C350.48 102.945 349.625 101.293 349.625 99.1484C349.625 97.0039 350.445 95.3984 351.699 94.5195C352.953 93.6406 354.336 93.2305 355.801 93.2305ZM355.824 109.145C353.246 109.145 351.547 110.375 351.547 112.344C351.547 114.23 353.188 115.578 355.824 115.578C358.367 115.578 360.043 114.371 360.043 112.344C360.043 110.387 358.32 109.145 355.824 109.145ZM345.172 106.684H361.613V109.086H359.926C361.133 109.754 361.977 111.055 361.977 112.684C361.977 115.824 359.574 118.168 355.824 118.168C353.75 118.168 352.016 117.441 351.066 116.375C350.117 115.309 349.625 114.043 349.625 112.684C349.625 110.938 350.492 109.73 351.559 109.18H345.172V106.684ZM355.871 119.223C359.562 119.223 361.977 121.754 361.977 125.176C361.977 128.645 359.516 131.023 356 131.023L355.051 130.953V121.777C353.094 121.777 351.477 123.09 351.477 125.34C351.477 126.828 352.191 128.047 353.258 128.656L352.613 130.777C350.879 129.934 349.625 128.07 349.625 125.316C349.625 121.707 352.086 119.223 355.871 119.223ZM356.668 121.836V128.445C358.637 128.445 360.148 127.227 360.148 125.176C360.148 123.148 358.578 121.883 356.668 121.836ZM359.68 133.73V131.645H361.613V133.73H365.141V136.238H361.613V139.344H359.68V136.238H353.621C352.414 136.238 351.934 136.789 351.934 137.879V139.344H350V137.551C350 135.008 351.16 133.73 353.469 133.73H359.68ZM350.152 144.547L361.613 139.648V142.461L352.613 145.766V145.836L361.613 148.953V151.719L348.348 146.293C345.992 145.32 345.172 143.949 345.172 141.852V141.02H347.035V141.465C347.035 142.719 347.527 143.551 348.934 144.113L350.152 144.547ZM353.164 154.402C352.227 154.402 351.535 155.281 351.535 156.723C351.535 158.691 352.777 160.273 354.617 160.273H355.871C355.719 159.559 355.566 158.633 355.402 157.473C355.086 155.41 354.418 154.402 353.164 154.402ZM352.988 151.812C355.156 151.812 356.492 153.641 357.008 157.309C357.207 158.82 357.383 159.805 357.512 160.273H358.156C359.41 160.273 360.172 159.184 360.172 157.508C360.172 156.02 359.633 154.766 358.543 153.734L359.738 152.164C361.145 153.477 361.977 155.41 361.977 157.461C361.977 161.012 360.418 162.781 357.289 162.781H350V160.32H351.605C350.527 159.816 349.625 158.246 349.625 156.371C349.625 153.547 351.008 151.812 352.988 151.812ZM350 167.445V164.902H361.613L361.613 167.363H360.125C361.016 167.832 361.977 169.074 361.977 170.773C361.977 172.25 361.227 173.316 359.738 173.961C360.102 174.137 360.512 174.477 361.051 175.098C361.59 175.707 361.977 176.75 361.977 177.957C361.977 180.57 360.477 181.883 357.477 181.883H350V179.316H357.383C359.152 179.316 360.043 178.883 360.043 177.383C360.043 175.789 358.695 174.629 356.879 174.629H350V172.121H357.43C359.176 172.121 360.043 171.477 360.043 170.188C360.043 168.453 358.801 167.445 356.938 167.445H350ZM355.801 186.066C353.035 186.066 351.547 187.578 351.547 189.406C351.547 191.199 353.035 192.746 355.801 192.746C358.613 192.746 360.043 191.199 360.043 189.406C360.043 187.613 358.613 186.066 355.801 186.066ZM355.801 183.488C356.926 183.488 357.945 183.699 358.859 184.109C360.676 184.93 361.977 186.816 361.977 189.406C361.977 193.25 359.281 195.336 355.801 195.336C354.395 195.336 353.012 194.961 351.746 194.082C350.48 193.203 349.625 191.551 349.625 189.406C349.625 187.262 350.445 185.656 351.699 184.777C352.953 183.898 354.336 183.488 355.801 183.488Z" fill="black"/>
<path d="M29.1484 291L25.0586 275.004H27.8711L30.6484 288.422H30.7539L33.9297 275.004H36.6484L39.8594 288.422H39.9766L42.7539 275.004H45.5547L41.4766 291H38.4648L35.3594 277.898H35.2422L32.1602 291H29.1484ZM49.3516 277.371H46.5391V274.781H49.3516V277.371ZM46.7148 291V279.387H49.2109V291H46.7148ZM53.875 291H51.332V279.387H53.793V281.004H53.8164C54.2031 280.066 55.6094 279.023 57.5781 279.023C60.0742 279.023 61.75 280.301 61.75 283.523V291H59.207V283.84C59.207 281.918 58.4688 280.957 56.9922 280.957C55.2578 280.957 53.875 282.398 53.875 284.227V291ZM66.4141 291H63.8945V274.453H66.4141V284.402L71.3242 279.387H74.5352L69.8359 284.074L74.9102 291H71.9219L68.207 285.668L66.4141 287.461V291ZM87.4141 291H79.8438V275.004H86.5352C90.2383 275.004 92.0898 276.598 92.0898 279.176C92.0898 280.746 91.3164 281.871 89.7812 282.562C91.3867 283.043 92.7344 284.449 92.7344 286.406C92.7344 288.984 90.7422 291 87.4141 291ZM82.457 288.984H86.9102C88.6328 288.984 90.0156 288.035 90.0156 286.43C90.0156 284.93 88.832 283.746 86.8281 283.746H82.457V288.984ZM82.457 281.777H86.2422C88.082 281.777 89.3828 280.957 89.3828 279.375C89.3828 277.934 88.4336 277.02 86.3242 277.02H82.457V281.777ZM93.7539 285.129C93.7539 281.438 96.2852 279.023 99.707 279.023C103.176 279.023 105.555 281.484 105.555 285L105.484 285.949H96.3086C96.3086 287.906 97.6211 289.523 99.8711 289.523C101.359 289.523 102.578 288.809 103.188 287.742L105.309 288.387C104.465 290.121 102.602 291.375 99.8477 291.375C96.2383 291.375 93.7539 288.914 93.7539 285.129ZM96.3672 284.332H102.977C102.977 282.363 101.758 280.852 99.707 280.852C97.6797 280.852 96.4141 282.422 96.3672 284.332ZM109.082 287.836C109.082 288.773 109.961 289.465 111.402 289.465C113.371 289.465 114.953 288.223 114.953 286.383V285.129C114.238 285.281 113.312 285.434 112.152 285.598C110.09 285.914 109.082 286.582 109.082 287.836ZM106.492 288.012C106.492 285.844 108.32 284.508 111.988 283.992C113.5 283.793 114.484 283.617 114.953 283.488V282.844C114.953 281.59 113.863 280.828 112.188 280.828C110.699 280.828 109.445 281.367 108.414 282.457L106.844 281.262C108.156 279.855 110.09 279.023 112.141 279.023C115.691 279.023 117.461 280.582 117.461 283.711V291H115V289.395C114.496 290.473 112.926 291.375 111.051 291.375C108.227 291.375 106.492 289.992 106.492 288.012ZM119.582 286.84V279.387H122.125V286.477C122.125 288.457 122.91 289.453 124.469 289.453C126.344 289.453 127.41 287.859 127.41 285.938V279.387H129.918V291H127.504V289.465H127.469C127.047 290.367 125.852 291.375 123.871 291.375C121.539 291.375 119.582 290.016 119.582 286.84ZM133.199 281.32H131.113V279.387H133.199V275.859H135.707V279.387H138.812V281.32H135.707V287.379C135.707 288.586 136.258 289.066 137.348 289.066H138.812V291H137.02C134.477 291 133.199 289.84 133.199 287.531V281.32ZM144.016 290.848L139.117 279.387H141.93L145.234 288.387H145.305L148.422 279.387H151.188L145.762 292.652C144.789 295.008 143.418 295.828 141.32 295.828H140.488V293.965H140.934C142.188 293.965 143.02 293.473 143.582 292.066L144.016 290.848ZM158.23 287.004C159.121 288.41 160.832 289.348 162.836 289.348C164.957 289.348 166.422 288.34 166.422 286.805C166.422 285.973 166.035 285.34 165.203 284.848C164.359 284.355 163.715 284.133 162.449 283.746C160.656 283.207 159.426 282.762 158.758 282.398C157.281 281.59 156.543 280.441 156.543 278.977C156.543 276.363 159.016 274.629 162.672 274.629C165.66 274.629 167.863 276.023 168.848 277.898L166.633 278.59C165.684 277.289 164.359 276.633 162.66 276.633C160.551 276.633 159.25 277.547 159.25 278.953C159.25 279.492 159.496 279.961 159.977 280.371C160.949 281.191 161.453 281.297 163.598 281.906C163.844 281.977 164.02 282.035 164.137 282.082C165.578 282.516 166.516 282.891 167.547 283.605C168.578 284.32 169.152 285.375 169.152 286.699C169.152 289.617 166.562 291.375 162.801 291.375C159.531 291.375 157.059 289.945 155.898 287.73L158.23 287.004ZM171.941 281.32H169.855V279.387H171.941V275.859H174.449V279.387H177.555V281.32H174.449V287.379C174.449 288.586 175 289.066 176.09 289.066H177.555V291H175.762C173.219 291 171.941 289.84 171.941 287.531V281.32ZM178.902 286.84V279.387H181.445V286.477C181.445 288.457 182.23 289.453 183.789 289.453C185.664 289.453 186.73 287.859 186.73 285.938V279.387H189.238V291H186.824V289.465H186.789C186.367 290.367 185.172 291.375 183.191 291.375C180.859 291.375 178.902 290.016 178.902 286.84ZM190.832 285.176C190.832 281.367 193.129 279.023 196.316 279.023C197.922 279.023 199.199 279.926 199.809 280.91V274.453H202.328V291H199.879V289.312C199.27 290.449 197.922 291.375 196.316 291.375C194.969 291.375 193.727 290.895 192.648 289.957C191.559 289.031 190.832 287.32 190.832 285.176ZM193.41 285.176C193.41 287.812 194.734 289.453 196.656 289.453C198.496 289.453 199.844 287.801 199.844 285.176C199.844 282.633 198.531 280.957 196.656 280.957C194.641 280.957 193.41 282.633 193.41 285.176ZM207.109 277.371H204.297V274.781H207.109V277.371ZM204.473 291V279.387H206.969V291H204.473ZM211.129 285.199C211.129 287.965 212.641 289.453 214.469 289.453C216.262 289.453 217.809 287.965 217.809 285.199C217.809 282.387 216.262 280.957 214.469 280.957C212.676 280.957 211.129 282.387 211.129 285.199ZM208.551 285.199C208.551 284.074 208.762 283.055 209.172 282.141C209.992 280.324 211.879 279.023 214.469 279.023C218.312 279.023 220.398 281.719 220.398 285.199C220.398 286.605 220.023 287.988 219.145 289.254C218.266 290.52 216.613 291.375 214.469 291.375C212.324 291.375 210.719 290.555 209.84 289.301C208.961 288.047 208.551 286.664 208.551 285.199Z" fill="black"/>
<path d="M26.2227 548H21.125V532.004H26.2695C31.5664 532.004 34.6367 534.84 34.6367 540.008C34.6367 542.293 34.0039 544.156 32.7031 545.645C31.4023 547.133 29.1406 548 26.2227 548ZM23.7383 545.996H25.9297C29.9023 545.996 31.8945 544.004 31.8945 540.008C31.8945 536 29.9258 533.996 25.9766 533.996H23.7383V545.996ZM36.5352 543.84V536.387H39.0781V543.477C39.0781 545.457 39.8633 546.453 41.4219 546.453C43.2969 546.453 44.3633 544.859 44.3633 542.938V536.387H46.8711V548H44.457V546.465H44.4219C44 547.367 42.8047 548.375 40.8242 548.375C38.4922 548.375 36.5352 547.016 36.5352 543.84ZM51.4648 548H49.0039V531.453H51.5V537.934C52.1094 536.914 53.375 536.023 55.0039 536.023C58.1914 536.023 60.4883 538.367 60.4883 542.176C60.4883 544.32 59.75 546.031 58.6719 546.957C57.5938 547.895 56.3164 548.375 55.0391 548.375C53.4102 548.375 52.0273 547.449 51.4648 546.336V548ZM51.4648 542.176C51.4648 544.801 52.8008 546.453 54.6641 546.453C56.5508 546.453 57.8984 544.883 57.8984 542.176C57.8984 539.562 56.6328 537.957 54.6641 537.957C52.7773 537.957 51.4648 539.633 51.4648 542.176ZM64.0508 544.836C64.0508 545.773 64.9297 546.465 66.3711 546.465C68.3398 546.465 69.9219 545.223 69.9219 543.383V542.129C69.207 542.281 68.2812 542.434 67.1211 542.598C65.0586 542.914 64.0508 543.582 64.0508 544.836ZM61.4609 545.012C61.4609 542.844 63.2891 541.508 66.957 540.992C68.4688 540.793 69.4531 540.617 69.9219 540.488V539.844C69.9219 538.59 68.832 537.828 67.1562 537.828C65.668 537.828 64.4141 538.367 63.3828 539.457L61.8125 538.262C63.125 536.855 65.0586 536.023 67.1094 536.023C70.6602 536.023 72.4297 537.582 72.4297 540.711V548H69.9688V546.395C69.4648 547.473 67.8945 548.375 66.0195 548.375C63.1953 548.375 61.4609 546.992 61.4609 545.012ZM77.2109 534.371H74.3984V531.781H77.2109V534.371ZM74.5742 548V536.387H77.0703V548H74.5742ZM87.9688 534.02H82.707V532.004H95.8086V534.02H90.582V548H87.9688V534.02ZM96.793 544.66C97.7188 545.902 98.9141 546.523 100.391 546.523C101.938 546.523 102.98 545.902 102.98 544.965C102.98 544.367 102.477 543.875 101.469 543.477C101.152 543.348 100.414 543.125 99.2656 542.809C98.2344 542.492 97.5195 542.234 96.7109 541.695C95.9023 541.156 95.4453 540.359 95.4453 539.363C95.4453 537.348 97.5195 536.023 100.426 536.023C102.535 536.023 104.516 537.16 105.418 538.66L103.73 539.586C102.863 538.449 101.762 537.875 100.426 537.875C98.8438 537.875 98 538.496 98 539.398C98 539.879 98.375 540.324 98.7031 540.559C98.8555 540.688 99.1367 540.816 99.5234 540.969C100.297 541.262 100.461 541.297 101.398 541.543C104.176 542.316 105.559 543.465 105.559 544.988C105.559 546.898 103.66 548.375 100.438 548.375C98.0352 548.375 96.0078 547.309 94.9648 545.621L96.793 544.66ZM109.742 534.371H106.93V531.781H109.742V534.371ZM107.105 548V536.387H109.602V548H107.105ZM114.266 548H111.723V536.387H114.184V538.004H114.207C114.594 537.066 116 536.023 117.969 536.023C120.465 536.023 122.141 537.301 122.141 540.523V548H119.598V540.84C119.598 538.918 118.859 537.957 117.383 537.957C115.648 537.957 114.266 539.398 114.266 541.227V548ZM126.324 541.965C126.324 544.461 127.543 545.984 129.383 545.984C131.27 545.984 132.43 544.543 132.43 541.965C132.43 539.434 131.223 537.957 129.441 537.957C127.531 537.957 126.324 539.562 126.324 541.965ZM123.746 542C123.746 538.344 125.961 536.023 129.09 536.023C130.812 536.023 131.996 536.938 132.465 537.91V536.387H134.961V546.465C134.961 550.871 133.18 552.91 129.254 552.91C127.086 552.91 125.434 552.184 124.285 550.742L125.961 549.688C126.91 550.637 128.023 551.105 129.312 551.105C131.152 551.105 132.383 549.699 132.43 547.59C132.43 547.438 132.441 547.203 132.453 546.863C132.465 546.535 132.465 546.312 132.465 546.184C131.844 547.203 130.637 547.918 129.184 547.918C125.914 547.918 123.746 545.516 123.746 542ZM139.074 544.836C139.074 545.773 139.953 546.465 141.395 546.465C143.363 546.465 144.945 545.223 144.945 543.383V542.129C144.23 542.281 143.305 542.434 142.145 542.598C140.082 542.914 139.074 543.582 139.074 544.836ZM136.484 545.012C136.484 542.844 138.312 541.508 141.98 540.992C143.492 540.793 144.477 540.617 144.945 540.488V539.844C144.945 538.59 143.855 537.828 142.18 537.828C140.691 537.828 139.438 538.367 138.406 539.457L136.836 538.262C138.148 536.855 140.082 536.023 142.133 536.023C145.684 536.023 147.453 537.582 147.453 540.711V548H144.992V546.395C144.488 547.473 142.918 548.375 141.043 548.375C138.219 548.375 136.484 546.992 136.484 545.012Z" fill="black"/>
<path d="M411.738 548H409.125V532.004H411.738V548ZM414 542.094V532.004H416.637V542.07C416.637 544.941 418.137 546.348 420.48 546.348C422.918 546.348 424.383 544.848 424.383 542.07V532.004H427.008V542.094C427.008 546.078 424.793 548.375 420.48 548.375C416.367 548.375 414 546.207 414 542.094ZM431.871 548H429.258V532.004H432.516L437.496 543.898H437.566L442.57 532.004H445.863V548H443.25V535.789L438.574 546.992H436.547L431.871 535.848V548Z" fill="black"/>
<path d="M735.98 61.7188V56.457H737.996V69.5586H735.98V64.332H722V61.7188L735.98 61.7188ZM722 73.5781V71.082H738.547V73.5781H732.219V73.625C733.215 74.2695 733.977 75.6523 733.977 77.1875C733.977 79.707 732.664 81.4297 729.477 81.4297H722V78.957H729.16C731.082 78.957 732.043 78.2188 732.043 76.7305C732.043 74.9844 730.531 73.5781 728.703 73.5781H722ZM727.871 83.0352C731.562 83.0352 733.977 85.5664 733.977 88.9883C733.977 92.457 731.516 94.8359 728 94.8359L727.051 94.7656V85.5898C725.094 85.5898 723.477 86.9023 723.477 89.1523C723.477 90.6406 724.191 91.8594 725.258 92.4688L724.613 94.5898C722.879 93.7461 721.625 91.8828 721.625 89.1289C721.625 85.5195 724.086 83.0352 727.871 83.0352ZM728.668 85.6484V92.2578C730.637 92.2578 732.148 91.0391 732.148 88.9883C732.148 86.9609 730.578 85.6953 728.668 85.6484ZM728.527 105.793L737.996 99.5469V102.594L730.484 107.059V107.105L737.996 111.559V114.652L728.527 108.43H722V105.793H728.527ZM725.164 115.262C724.227 115.262 723.535 116.141 723.535 117.582C723.535 119.551 724.777 121.133 726.617 121.133H727.871C727.719 120.418 727.566 119.492 727.402 118.332C727.086 116.27 726.418 115.262 725.164 115.262ZM724.988 112.672C727.156 112.672 728.492 114.5 729.008 118.168C729.207 119.68 729.383 120.664 729.512 121.133H730.156C731.41 121.133 732.172 120.043 732.172 118.367C732.172 116.879 731.633 115.625 730.543 114.594L731.738 113.023C733.145 114.336 733.977 116.27 733.977 118.32C733.977 121.871 732.418 123.641 729.289 123.641H722V121.18H723.605C722.527 120.676 721.625 119.105 721.625 117.23C721.625 114.406 723.008 112.672 724.988 112.672ZM731.68 126.828V124.766H733.613V126.828H735.031C737.41 126.828 738.547 128.199 738.547 130.555V132.5H736.637V130.918C736.637 129.875 736.051 129.359 734.867 129.359H733.613V132.184H731.68V129.359H722V126.828H731.68ZM727.871 132.324C731.562 132.324 733.977 134.855 733.977 138.277C733.977 141.746 731.516 144.125 728 144.125L727.051 144.055V134.879C725.094 134.879 723.477 136.191 723.477 138.441C723.477 139.93 724.191 141.148 725.258 141.758L724.613 143.879C722.879 143.035 721.625 141.172 721.625 138.418C721.625 134.809 724.086 132.324 727.871 132.324ZM728.668 134.938V141.547C730.637 141.547 732.148 140.328 732.148 138.277C732.148 136.25 730.578 134.984 728.668 134.938Z" fill="black"/>
<path d="M1101 68.8438V57.125L1117 57.125V68.6445H1114.98V59.7383H1110.27V67.7656H1108.29V59.7383H1103.02V68.8438H1101ZM1101 74.4805L1112.61 69.875V72.6641L1102.93 75.9102V75.957L1112.61 79.1914V81.9805L1101 77.3984V74.4805ZM1106.87 82.1211C1110.56 82.1211 1112.98 84.6523 1112.98 88.0742C1112.98 91.543 1110.52 93.9219 1107 93.9219L1106.05 93.8516V84.6758C1104.09 84.6758 1102.48 85.9883 1102.48 88.2383C1102.48 89.7266 1103.19 90.9453 1104.26 91.5547L1103.61 93.6758C1101.88 92.832 1100.62 90.9688 1100.62 88.2148C1100.62 84.6055 1103.09 82.1211 1106.87 82.1211ZM1107.67 84.7344V91.3438C1109.64 91.3438 1111.15 90.125 1111.15 88.0742C1111.15 86.0469 1109.58 84.7812 1107.67 84.7344ZM1101 98.0234V95.4805H1112.61V97.9414H1111V97.9648C1111.93 98.3516 1112.98 99.7578 1112.98 101.727C1112.98 104.223 1111.7 105.898 1108.48 105.898H1101V103.355H1108.16C1110.08 103.355 1111.04 102.617 1111.04 101.141C1111.04 99.4062 1109.6 98.0234 1107.77 98.0234H1101ZM1110.68 109.191V107.105H1112.61V109.191H1116.14V111.699H1112.61V114.805H1110.68V111.699H1104.62C1103.41 111.699 1102.93 112.25 1102.93 113.34V114.805H1101V113.012C1101 110.469 1102.16 109.191 1104.47 109.191H1110.68ZM1101.15 120.008L1112.61 115.109V117.922L1103.61 121.227V121.297L1112.61 124.414V127.18L1099.35 121.754C1096.99 120.781 1096.17 119.41 1096.17 117.312V116.48H1098.04V116.926C1098.04 118.18 1098.53 119.012 1099.93 119.574L1101.15 120.008ZM1105 134.223C1103.59 135.113 1102.65 136.824 1102.65 138.828C1102.65 140.949 1103.66 142.414 1105.2 142.414C1106.03 142.414 1106.66 142.027 1107.15 141.195C1107.64 140.352 1107.87 139.707 1108.25 138.441C1108.79 136.648 1109.24 135.418 1109.6 134.75C1110.41 133.273 1111.56 132.535 1113.02 132.535C1115.64 132.535 1117.37 135.008 1117.37 138.664C1117.37 141.652 1115.98 143.855 1114.1 144.84L1113.41 142.625C1114.71 141.676 1115.37 140.352 1115.37 138.652C1115.37 136.543 1114.45 135.242 1113.05 135.242C1112.51 135.242 1112.04 135.488 1111.63 135.969C1110.81 136.941 1110.7 137.445 1110.09 139.59C1110.02 139.836 1109.96 140.012 1109.92 140.129C1109.48 141.57 1109.11 142.508 1108.39 143.539C1107.68 144.57 1106.62 145.145 1105.3 145.145C1102.38 145.145 1100.62 142.555 1100.62 138.793C1100.62 135.523 1102.05 133.051 1104.27 131.891L1105 134.223ZM1104.16 148.754C1103.23 148.754 1102.54 149.633 1102.54 151.074C1102.54 153.043 1103.78 154.625 1105.62 154.625H1106.87C1106.72 153.91 1106.57 152.984 1106.4 151.824C1106.09 149.762 1105.42 148.754 1104.16 148.754ZM1103.99 146.164C1106.16 146.164 1107.49 147.992 1108.01 151.66C1108.21 153.172 1108.38 154.156 1108.51 154.625H1109.16C1110.41 154.625 1111.17 153.535 1111.17 151.859C1111.17 150.371 1110.63 149.117 1109.54 148.086L1110.74 146.516C1112.14 147.828 1112.98 149.762 1112.98 151.812C1112.98 155.363 1111.42 157.133 1108.29 157.133H1101V154.672H1102.61C1101.53 154.168 1100.62 152.598 1100.62 150.723C1100.62 147.898 1102.01 146.164 1103.99 146.164ZM1101 161.797V159.254H1112.61V161.656H1111.22C1112.11 162.207 1112.98 163.355 1112.98 164.949C1112.98 165.641 1112.89 166.215 1112.73 166.672H1110.64C1110.82 166.168 1110.9 165.594 1110.9 164.949C1110.9 162.934 1109.4 161.797 1107.11 161.797H1101ZM1101 170.293V167.762H1117.55V170.293H1101Z" fill="black"/>
<path d="M1104 294.738V292.125H1120V299.016C1120 302.637 1118.09 304.828 1115.17 304.828C1112.2 304.828 1110.35 302.531 1110.35 299.062V294.738H1104ZM1112.33 294.738V298.664C1112.33 300.867 1113.34 302.121 1115.17 302.121C1117.03 302.121 1117.98 300.902 1117.98 298.641V294.738H1112.33ZM1117.63 309.047V306.234H1120.22V309.047H1117.63ZM1104 306.41H1115.61V308.906H1104V306.41ZM1104 321.457V310.957H1105.5L1113.68 317.906V311.531H1115.61V321.223H1114.18L1105.92 314.203V321.457H1104ZM1104 333.902V323.402H1105.5L1113.68 330.352V323.977H1115.61V333.668H1114.18L1105.92 326.648V333.902H1104ZM1109.87 335.004C1113.56 335.004 1115.98 337.535 1115.98 340.957C1115.98 344.426 1113.52 346.805 1110 346.805L1109.05 346.734V337.559C1107.09 337.559 1105.48 338.871 1105.48 341.121C1105.48 342.609 1106.19 343.828 1107.26 344.438L1106.61 346.559C1104.88 345.715 1103.62 343.852 1103.62 341.098C1103.62 337.488 1106.09 335.004 1109.87 335.004ZM1110.67 337.617V344.227C1112.64 344.227 1114.15 343.008 1114.15 340.957C1114.15 338.93 1112.58 337.664 1110.67 337.617ZM1104 350.906V348.363H1115.61V350.766H1114.22C1115.11 351.316 1115.98 352.465 1115.98 354.059C1115.98 354.75 1115.89 355.324 1115.73 355.781H1113.64C1113.82 355.277 1113.9 354.703 1113.9 354.059C1113.9 352.043 1112.4 350.906 1110.11 350.906H1104ZM1117.63 359.531V356.719H1120.22V359.531H1117.63ZM1104 356.895H1115.61V359.391H1104V356.895ZM1107.16 363.48C1106.23 363.48 1105.54 364.359 1105.54 365.801C1105.54 367.77 1106.78 369.352 1108.62 369.352H1109.87C1109.72 368.637 1109.57 367.711 1109.4 366.551C1109.09 364.488 1108.42 363.48 1107.16 363.48ZM1106.99 360.891C1109.16 360.891 1110.49 362.719 1111.01 366.387C1111.21 367.898 1111.38 368.883 1111.51 369.352H1112.16C1113.41 369.352 1114.17 368.262 1114.17 366.586C1114.17 365.098 1113.63 363.844 1112.54 362.812L1113.74 361.242C1115.14 362.555 1115.98 364.488 1115.98 366.539C1115.98 370.09 1114.42 371.859 1111.29 371.859H1104V369.398H1105.61C1104.53 368.895 1103.62 367.324 1103.62 365.449C1103.62 362.625 1105.01 360.891 1106.99 360.891ZM1111.99 377.848C1116.91 377.848 1120.37 380.93 1120.37 385.805C1120.37 387.539 1119.81 389.121 1119 390.117C1118.19 391.113 1117.46 391.676 1116.68 392.086L1116.02 389.836C1117.43 388.852 1118.37 387.738 1118.37 385.805C1118.37 382.477 1115.8 380.543 1111.99 380.543C1108.07 380.543 1105.65 382.617 1105.65 385.676C1105.65 388.383 1107.32 389.953 1109.46 390.047C1109.68 390.07 1110.14 390.082 1110.83 390.082V385.5H1112.84V392.625H1104V390.797L1105.89 390.598C1104.38 389.602 1103.62 387.949 1103.62 385.617C1103.62 381.082 1106.85 377.848 1111.99 377.848ZM1104 397.09V394.559H1120.55V397.09H1104ZM1107.16 401.191C1106.23 401.191 1105.54 402.07 1105.54 403.512C1105.54 405.48 1106.78 407.062 1108.62 407.062H1109.87C1109.72 406.348 1109.57 405.422 1109.4 404.262C1109.09 402.199 1108.42 401.191 1107.16 401.191ZM1106.99 398.602C1109.16 398.602 1110.49 400.43 1111.01 404.098C1111.21 405.609 1111.38 406.594 1111.51 407.062H1112.16C1113.41 407.062 1114.17 405.973 1114.17 404.297C1114.17 402.809 1113.63 401.555 1112.54 400.523L1113.74 398.953C1115.14 400.266 1115.98 402.199 1115.98 404.25C1115.98 407.801 1114.42 409.57 1111.29 409.57H1104V407.109H1105.61C1104.53 406.605 1103.62 405.035 1103.62 403.16C1103.62 400.336 1105.01 398.602 1106.99 398.602ZM1109.8 411.152C1113.54 411.152 1115.98 413.52 1115.98 417.047C1115.98 419.566 1114.44 421.371 1112.67 421.875L1112.14 419.73C1113.21 419.32 1114.04 418.371 1114.04 417.07C1114.04 415.008 1112.25 413.766 1109.8 413.766C1107.16 413.766 1105.55 415.148 1105.55 417.07C1105.55 418.465 1106.53 419.625 1107.62 420.059L1107.06 422.191C1105.23 421.582 1103.62 419.566 1103.62 417.047C1103.62 413.543 1106.05 411.152 1109.8 411.152ZM1117.63 426.422V423.609H1120.22V426.422H1117.63ZM1104 423.785H1115.61V426.281H1104V423.785ZM1109.87 427.863C1113.56 427.863 1115.98 430.395 1115.98 433.816C1115.98 437.285 1113.52 439.664 1110 439.664L1109.05 439.594V430.418C1107.09 430.418 1105.48 431.73 1105.48 433.98C1105.48 435.469 1106.19 436.688 1107.26 437.297L1106.61 439.418C1104.88 438.574 1103.62 436.711 1103.62 433.957C1103.62 430.348 1106.09 427.863 1109.87 427.863ZM1110.67 430.477V437.086C1112.64 437.086 1114.15 435.867 1114.15 433.816C1114.15 431.789 1112.58 430.523 1110.67 430.477ZM1104 443.766V441.223H1115.61V443.625H1114.22C1115.11 444.176 1115.98 445.324 1115.98 446.918C1115.98 447.609 1115.89 448.184 1115.73 448.641H1113.64C1113.82 448.137 1113.9 447.562 1113.9 446.918C1113.9 444.902 1112.4 443.766 1110.11 443.766H1104Z" fill="black"/>
<rect x="2.5" y="2.5" width="1152" height="760" rx="19.5" stroke="black"/>
<line x1="387.5" y1="1" x2="387.5" y2="763" stroke="black"/>
<line x1="771.5" y1="2.18556e-08" x2="771.5" y2="762" stroke="black"/>
<line y1="-0.5" x2="1153.01" y2="-0.5" transform="matrix(0.999991 0.00433647 -0.00432147 0.999991 0 250)" stroke="black"/>
<line y1="-0.5" x2="1153.01" y2="-0.5" transform="matrix(0.999991 0.00433647 -0.00432147 0.999991 0 509)" stroke="black"/>
</svg>
