<svg xmlns="http://www.w3.org/2000/svg" viewBox="0 0 168.15 115.15"><g id="Layer_2" data-name="Layer 2"><g id="Layer_1-2" data-name="Layer 1"><polygon points="149.14 77.55 149.14 86.05 53.28 56.26 53.28 50.14 0 85.87 0 77.68 53.28 30.97 149.14 77.55"/><polygon points="149.14 107.15 149.14 115.15 0 115.15 0 107.02 53.28 95.97 53.29 95.97 149.14 107.15"/><polygon points="149.14 92.22 149.14 100.38 53.28 87.41 53.28 82.18 0 100.95 0 92.36 53.28 64.4 149.14 92.22"/><polygon points="149.14 22.71 149.14 71.22 53.28 22.71 53.28 15.73 46.56 22.71 0 71.06 0 22.71 34.66 22.71 53.28 0.02 53.29 0 87.45 22.71 149.14 22.71"/><path d="M152.51,23.8v-1h6.55v1h-2.61v7h-1.31v-7Z"/><path d="M159.85,30.79v-8h1.63L164,28.73h0l2.51-5.94h1.64v8h-1.3V24.68l-2.34,5.6h-1l-2.33-5.57v6.08Z"/></g></g></svg>