<svg xmlns="http://www.w3.org/2000/svg" viewBox="0 0 113 113"><defs><style>.cls-1{fill:#fff;}</style></defs><g id="Layer_2" data-name="Layer 2"><g id="Layer_1-2" data-name="Layer 1"><path class="cls-1" d="M41.5,67.5H34.25L19.89,100h7l3.23-8H45.5l3.31,8h7ZM31.94,87.6l5.75-14.88H38L43.73,87.6Z"/><path class="cls-1" d="M71,67.5H57.86V100H70.93c6.12,0,11-1.27,14.16-3.28A14,14,0,0,0,89,93.13a15,15,0,0,0,2.86-9.4C91.86,73.27,84.35,67.5,71,67.5Zm-.92,28H65.23V72.09h5c8.75,0,14,3.31,14,11.64Q84.21,95.46,70.07,95.45Z"/><path class="cls-1" d="M47.15,32.7q0,11.74-14.14,11.73H28.17V21.07h5C41.88,21.07,47.15,24.37,47.15,32.7Z"/><path class="cls-1" d="M6.5,6.5V59h100V6.5ZM51.94,42.11A14,14,0,0,1,48,45.7C44.9,47.71,40,49,33.87,49H20.8V16.48H33.93c13.36,0,20.87,5.76,20.87,16.22A15.06,15.06,0,0,1,51.94,42.11ZM83.08,49,69.92,34.52l-4.79,4.09V49H57.86V16.5h7.27V31.22h.12l17-14.72h9.23L74.5,30.69,91.86,49Z"/><path class="cls-1" d="M0,0V113H113V0ZM110,109.71H3V3.29H110Z"/></g></g></svg>