<svg xmlns="http://www.w3.org/2000/svg" viewBox="0 0 202.5 75"><defs><style>.cls-1{fill:#fff;}</style></defs><g id="Layer_2" data-name="Layer 2"><g id="Layer_1-2" data-name="Layer 1"><path class="cls-1" d="M0,0V75H202.5V0ZM200.47,73H2V2H200.47Z"/><path class="cls-1" d="M138.91,16h-8L115,48.5h7.76l3.58-8h17l3.66,8h7.74ZM128.33,36.1l6.36-14.88H135l6.36,14.88Z"/><path class="cls-1" d="M170,16H157V48.5h12.95c6.07,0,10.93-1.27,14-3.28a13.73,13.73,0,0,0,3.87-3.59,15.14,15.14,0,0,0,2.84-9.4C190.68,21.77,183.24,16,170,16Zm-.91,28h-4.8V20.59h4.92c8.67,0,13.89,3.31,13.89,11.64Q183.1,44,169.09,44Z"/><path class="cls-1" d="M6,6V58.5h99.56V6ZM51.41,41.61a13.83,13.83,0,0,1-3.86,3.59c-3.11,2-8,3.28-14,3.28H20.56V16h13c13.24,0,20.69,5.76,20.69,16.22A15.17,15.17,0,0,1,51.41,41.61Zm31.2,6.89L69.4,34l-4.81,4.09V48.5H57.3V16h7.29V30.72h.12L81.73,16H91L74,30.19,91.43,48.5ZM32.78,20.57H27.86V43.93h4.8q14,0,14-11.73C46.67,23.87,41.45,20.57,32.78,20.57Z"/><path class="cls-1" d="M21.42,63.75H20v4.53h1.41a2.27,2.27,0,1,0,0-4.53Zm-.09,4h-.68V64.24h.69a1.78,1.78,0,1,1,0,3.55Z"/><path class="cls-1" d="M30.27,65.72l2-2h-.85L29.18,66h0V63.75h-.64v4.53h.64V66.83l.7-.7,1.65,2.15h.81Z"/><path class="cls-1" d="M39.07,63.75H38.3l-1.88,4.53h.7L37.61,67h2.16l.48,1.24H41Zm-1.28,2.82.88-2.28h0l.87,2.28Z"/><path class="cls-1" d="M48.93,67.36v0a0,0,0,0,1,0,0v0s0,0,0,0v-.11a1.31,1.31,0,0,0-.45-1A1.25,1.25,0,0,0,49,65.05c0-.75-.6-1.31-1.6-1.31h-2v4.57h.63V66.39h1.28c.71,0,.88.27.91.77a2.45,2.45,0,0,0,.26,1.15h.7A1.87,1.87,0,0,1,48.93,67.36Zm-1.51-1.55H46.08v-1.5h1.27c.75,0,1,.29,1,.75S48.09,65.81,47.42,65.81Z"/><path class="cls-1" d="M57,67.12a1.43,1.43,0,0,1-1.27.77c-.92,0-1.53-.72-1.53-1.87s.59-1.88,1.53-1.88a1.31,1.31,0,0,1,1.15.7l.56-.17a1.85,1.85,0,0,0-1.69-1,2.37,2.37,0,0,0,0,4.73A2,2,0,0,0,57,68a2.05,2.05,0,0,0,.61-.73Z"/><path class="cls-1" d="M65.3,63.75v2H63v-2H62.3v4.53H63V66.19H65.3v2.09H66V63.75Z"/><path class="cls-1" d="M70.82,63.75v4.53h.65V63.75Z"/><path class="cls-1" d="M76.09,63.75v.49h1.52v4h.65v-4h1.53v-.49Z"/><path class="cls-1" d="M85.06,67.78v-1.6H87.4V65.7H85.06V64.24h2.6v-.49H84.41v4.53h3.3v-.5Z"/><path class="cls-1" d="M95.77,67.12a1.43,1.43,0,0,1-1.27.77c-.92,0-1.52-.72-1.52-1.87s.59-1.88,1.52-1.88a1.31,1.31,0,0,1,1.15.7l.56-.17a1.85,1.85,0,0,0-1.69-1,2.37,2.37,0,0,0,0,4.73A2,2,0,0,0,95.73,68a2.2,2.2,0,0,0,.62-.73Z"/><path class="cls-1" d="M100.78,63.75v.49h1.53v4H103v-4h1.52v-.49Z"/><path class="cls-1" d="M112.12,63.75v2.86a1.13,1.13,0,0,1-1.19,1.28,1.12,1.12,0,0,1-1.17-1.28V63.75h-.66v2.87a1.84,1.84,0,0,0,3.68,0V63.75Z"/><path class="cls-1" d="M121.13,67.36v0a0,0,0,0,1,0,0v0s0,0,0,0v-.11a1.27,1.27,0,0,0-.44-1,1.25,1.25,0,0,0,.57-1.06c0-.75-.61-1.31-1.61-1.31h-2v4.57h.64V66.39h1.28c.71,0,.88.27.91.77a2.45,2.45,0,0,0,.26,1.15h.7A1.87,1.87,0,0,1,121.13,67.36Zm-1.51-1.55h-1.34v-1.5h1.27c.75,0,1,.29,1,.75S120.29,65.81,119.62,65.81Z"/><path class="cls-1" d="M126.58,67.78v-1.6h2.35V65.7h-2.35V64.24h2.6v-.49h-3.24v4.53h3.3v-.5Z"/><path class="cls-1" d="M137.15,67.43a2.59,2.59,0,0,0,.31-1.35H137a2.38,2.38,0,0,1-.17,1l-1.24-1.43c.58-.4.82-.76.82-1.22a.92.92,0,0,0-1-.92,1,1,0,0,0-1,1c0,.3.14.57.56,1.08-.82.49-1.15.93-1.15,1.52,0,.79.64,1.3,1.63,1.3a2,2,0,0,0,1.47-.58l.43.5h.58Zm-2.33-3a.51.51,0,0,1,.58-.53c.35,0,.56.19.56.49s-.2.61-.63.9C134.92,64.83,134.82,64.66,134.82,64.46Zm.57,3.47c-.73,0-1.16-.33-1.16-.87s.26-.78,1-1.19l1.39,1.6A1.55,1.55,0,0,1,135.39,67.93Z"/><path class="cls-1" d="M143.7,63.75h-1.42v4.53h1.41a2.27,2.27,0,1,0,0-4.53Zm-.09,4h-.68V64.24h.69a1.78,1.78,0,1,1,0,3.55Z"/><path class="cls-1" d="M151.45,67.78v-1.6h2.34V65.7h-2.34V64.24H154v-.49H150.8v4.53h3.3v-.5Z"/><path class="cls-1" d="M161.93,66.21a3.55,3.55,0,0,0-1-.43l-.13,0a4.42,4.42,0,0,1-.89-.33.64.64,0,0,1-.41-.57c0-.42.4-.71,1.06-.71a1.36,1.36,0,0,1,1.17.56l.55-.16a1.84,1.84,0,0,0-1.71-.89c-1,0-1.73.47-1.73,1.2a1.07,1.07,0,0,0,.6,1,7.33,7.33,0,0,0,1.09.39,3.6,3.6,0,0,1,.82.32.63.63,0,0,1,.37.59c0,.47-.45.79-1.11.79a1.56,1.56,0,0,1-1.36-.69l-.59.19a2.07,2.07,0,0,0,1.94,1c1.08,0,1.79-.48,1.79-1.3A1,1,0,0,0,161.93,66.21Z"/><path class="cls-1" d="M167.06,63.75v4.53h.65V63.75Z"/><path class="cls-1" d="M174.58,65.81v.49H176v.2a1.82,1.82,0,0,0,0,.2,1.21,1.21,0,0,1-1.31,1.19c-.94,0-1.56-.71-1.56-1.87s.58-1.88,1.58-1.88a1.45,1.45,0,0,1,1.2.67l.55-.16a1.87,1.87,0,0,0-.56-.64,2,2,0,0,0-1.19-.36A2.18,2.18,0,0,0,172.42,66a2.15,2.15,0,0,0,2.19,2.36,1.54,1.54,0,0,0,1.46-.7l.06.6h.46V65.81Z"/><path class="cls-1" d="M184.35,63.75v3.62L182,63.75h-.72v4.53H182V64.67l2.32,3.61H185V63.75Z"/></g></g></svg>